<svg width="32" height="32" viewBox="0 0 32 32" fill="none" xmlns="http://www.w3.org/2000/svg">
<path fill-rule="evenodd" clip-rule="evenodd" d="M16 0.400024C7.15 0.400024 0 7.55002 0 16.4C0 23.45 4.6 29.45 10.95 31.6C11.75 31.75 12.05 31.25 12.05 30.85C12.05 30.45 12.05 29.45 12.05 28.15C7.6 29.1 6.65 26 6.65 26C5.9 24.15 4.85 23.65 4.85 23.65C3.4 22.65 4.95 22.7 4.95 22.7C6.55 22.8 7.4 24.35 7.4 24.35C8.85 26.8 11.15 26.1 12.05 25.7C12.2 24.65 12.6 23.95 13.05 23.55C9.5 23.15 5.75 21.75 5.75 15.65C5.75 13.9 6.35 12.5 7.4 11.35C7.25 10.95 6.7 9.30002 7.55 7.10002C7.55 7.10002 8.9 6.65002 11.95 8.75002C13.25 8.40002 14.6 8.20002 15.95 8.20002C17.3 8.20002 18.7 8.40002 19.95 8.75002C23 6.70002 24.35 7.10002 24.35 7.10002C25.2 9.30002 24.65 10.95 24.5 11.35C25.55 12.45 26.15 13.9 26.15 15.65C26.15 21.8 22.4 23.15 18.85 23.55C19.4 24.05 19.95 25 19.95 26.5C19.95 28.65 19.95 30.35 19.95 30.9C19.95 31.35 20.25 31.85 21.05 31.65C27.4 29.45 32 23.45 32 16.4C32 7.55002 24.85 0.400024 16 0.400024Z" fill="white"/>
</svg>
