<svg width="695" height="625" viewBox="0 0 695 625" fill="none" xmlns="http://www.w3.org/2000/svg">
<mask id="mask0" mask-type="alpha" maskUnits="userSpaceOnUse" x="0" y="0" width="695" height="625">
<rect width="695" height="625" fill="#C4C4C4"/>
</mask>
<g mask="url(#mask0)">
<path fill-rule="evenodd" clip-rule="evenodd" d="M681.31 -616.795C653.303 -613.155 616.109 -651.634 597.438 -667.698C560.512 -699.46 525.85 -732.995 490.76 -766.12C455.671 -799.244 420.65 -832.48 382.845 -863.484C358.303 -883.616 330.512 -907.411 297.778 -918.911C228.02 -943.405 251.747 -839.91 253.952 -812.574C259.548 -743.03 271.817 -664.046 246.473 -594.764C231.343 -553.406 199.355 -533.439 148.618 -535.095C132.121 -535.61 112.489 -541.041 97.6639 -532.229C81.8304 -522.819 74.3462 -505.043 69.6789 -490.497C52.6824 -437.446 57.6172 -379.726 61.7111 -326.551C66.0644 -269.203 74.7099 -211.885 82.0218 -155.341C85.1234 -131.366 77.967 -104.934 72.4825 -80.9734C65.2949 -49.5617 56.6802 -18.3199 48.4961 12.9732C30.5545 81.8083 11.4585 152.82 13.9263 222.775C15.4701 266.585 27.5358 313.078 68.9564 341.726C89.7536 356.11 118.495 361.248 144.283 367.721C175.44 375.565 206.819 382.903 237.612 391.572C336.79 419.5 436.146 465.029 453.308 558.218C455.901 572.316 455.506 586.556 456.972 600.737C457.915 609.766 461.64 617.416 473.573 619.222C503.508 623.772 545.45 591.261 566.857 577.367C613.716 546.949 657.924 513.801 703.6 482.179C733.806 461.26 774.276 426.632 813.633 421.057C848.7 416.09 879.193 450.946 899.271 469.456C918.072 486.803 945.459 519.128 978.677 516.859C994.784 515.758 1006.86 505.359 1015.93 494.977C1031.77 476.783 1042.01 456.897 1060.6 439.949C1091.09 412.156 1134.74 386.504 1180.47 383.603C1212.15 381.594 1234.67 393.515 1256.82 409.549C1266.13 416.288 1272.83 421.872 1286.29 420.491C1307.68 418.308 1329.31 408.456 1348.3 400.182C1416.28 370.578 1480.78 332.82 1540.33 292.453C1570.09 272.281 1599.57 250.845 1623.95 226.118C1639.97 209.917 1658.73 188.447 1655.89 167.384C1652.62 142.995 1638.42 118.626 1627.22 95.9939C1606.28 53.7255 1583.06 12.3058 1559.43 -28.8799C1504.75 -124.124 1446.85 -217.974 1385.75 -310.43C1342.66 -375.547 1299.32 -442.134 1245.65 -501.594C1235.13 -513.182 1223.23 -523.858 1210.13 -533.476C1196.35 -543.782 1188.91 -557.865 1182.83 -572.341C1145.12 -662.187 1150.82 -766.912 1150.44 -862.15C1150.33 -886.323 1150.24 -910.498 1149.21 -934.614C1148.32 -955.346 1150.35 -980.581 1139.7 -999.421C1118.74 -1036.55 1065.41 -994.499 1043.75 -976.841C967.485 -914.671 905.998 -839.4 842.396 -768.748C812.101 -735.148 781.925 -701.34 749.483 -669.06C732.621 -652.255 705.862 -619.986 681.31 -616.795Z" stroke="#5BE7C3" stroke-width="5"/>
<path fill-rule="evenodd" clip-rule="evenodd" d="M678.946 -598.572C647.231 -610.253 621.663 -634.773 598.008 -654.802C563.957 -683.622 531.417 -713.694 498.136 -743.149C466.665 -771 434.875 -798.877 400.019 -823.905C378.764 -839.165 353.206 -858.462 324.163 -863.151C261.211 -873.327 283.553 -776.235 285.219 -751.751C289.381 -690.884 297.642 -622.35 273.259 -562.26C258.031 -524.738 226.958 -506 180.161 -507.304C163.971 -507.752 149.822 -510.572 134.841 -502.599C117.503 -493.377 108.216 -476.262 102.1 -460.893C82.9374 -412.748 84.6782 -359.105 86.7288 -309.971C88.8476 -259.212 92.6021 -206.533 102.461 -158.452C106.397 -139.224 101.791 -115.869 98.5357 -95.8828C93.516 -65.1288 87.0769 -34.4913 81.3847 -3.79721C69.8011 58.585 59.1434 122.424 65.3201 184.881C69.7783 229.972 84.4478 275.645 121.931 308.638C159.939 342.072 213.252 352.027 264.604 366.515C353.381 391.524 461.974 426.817 490.931 508.295C495.326 520.65 495.501 533.065 497.863 545.678C499.072 552.165 501.128 559.458 509.429 561.718C530.98 567.587 565.125 539.031 579.689 529.009C619.938 501.318 657.71 471.186 696.986 442.556C728.171 419.819 762.441 391.702 801.358 379.312C848.584 364.278 890.49 415.596 927.182 430.705C990.808 456.894 1015.81 387.79 1039.71 352.173C1067.14 311.272 1122.08 273.189 1176.49 299.277C1197.3 309.258 1210.76 323.164 1236.47 325.423C1276.68 328.957 1320.4 316.36 1358.04 304.087C1414.62 285.614 1469.73 260.988 1519.07 230.936C1554.4 209.408 1609.59 174.151 1599.81 134.65C1593.25 108.055 1578.81 82.0581 1565.78 57.0519C1546.28 19.6084 1524.84 -17.0732 1502.81 -53.4633C1452.06 -137.481 1397.46 -219.981 1338.81 -300.176C1298.79 -354.893 1145.46 -501.944 1139.12 -513.704C1120.22 -548.769 1117.06 -591.091 1114.12 -629.459C1110.21 -680.496 1110.91 -731.89 1111.06 -783.172C1111.12 -807.58 1111.88 -832.205 1110.26 -856.519C1109.11 -873.824 1107.07 -896.481 1092.9 -909.876C1065.23 -936.023 1015.3 -896.081 994.126 -879.494C929.222 -828.672 875.228 -768.147 819.426 -710.703C792.027 -682.512 764.726 -653.959 734.573 -627.661C722.396 -617.052 698.535 -591.351 678.946 -598.572Z" stroke="#5ACEF2" stroke-width="5"/>
<path fill-rule="evenodd" clip-rule="evenodd" d="M666.652 -574.893C601.658 -609.687 549.679 -662.761 493.361 -707.034C465.087 -729.253 436.115 -751.543 403.561 -769.613C386.632 -779.014 365.249 -790.721 343.495 -790.056C285.301 -788.273 304.926 -700.695 306.298 -673.879C308.935 -622.033 313.482 -563.671 290.416 -513.226C276.313 -482.405 248.795 -464.473 209.452 -464.614C191.996 -464.674 176.944 -466.392 160.92 -458.117C144.686 -449.732 134.357 -435.408 127.061 -421.327C106.074 -380.859 103.936 -333.774 103.333 -291.295C102.678 -241.469 106.458 -191.863 114.644 -142.877C121.792 -99.9713 112.017 -55.0106 107.422 -11.5677C101.342 45.9822 97.1122 104.313 106.535 161.109C113.985 205.963 131.221 249.869 166.029 284.407C201.467 319.493 249.819 336.968 301.436 351.649C379.466 373.842 483.627 400.573 521.048 467.168C526.499 476.853 528.224 486.327 530.347 496.784C531.376 501.864 532.368 508.467 539.23 510.137C555.752 514.15 583.171 487.465 592.937 479.735C624.114 455.06 653.538 428.896 684.199 403.78C712.823 380.332 742.531 354.989 777.495 338.123C833.183 311.277 875.388 367.621 930.655 358.486C964.965 352.81 986.052 322.463 1000.28 298.764C1017.77 269.587 1026.5 229.778 1063.09 211.449C1090.34 197.795 1109.03 210.993 1132.3 219.967C1171.73 235.177 1221.7 229.883 1263.94 222.097C1321.01 211.582 1377.84 192.744 1428.13 166.892C1450.93 155.176 1474.44 141.418 1490.98 123.579C1506.48 106.867 1509.12 92.6595 1502.98 73.9201C1484.17 16.5559 1445.73 -38.7601 1410.95 -91.5278C1367.25 -157.826 1320.12 -222.672 1268.54 -284.797C1233.36 -327.159 1196.37 -370.34 1150.89 -405.568C1139.03 -414.749 1126.24 -424.063 1111.43 -429.955C1100.3 -434.417 1091.42 -435.755 1084.19 -444.82C1062.77 -471.69 1061.91 -512.938 1059.54 -544.483C1055.74 -594.921 1056.79 -645.762 1057.07 -696.434C1057.27 -726.006 1062.79 -782.405 1028.89 -801.46C999.618 -817.907 957.509 -787.695 935.734 -772.228C880.669 -733.103 834.047 -686.016 785.495 -641.62C763.244 -621.273 740.894 -600.231 715.503 -582.488C709.031 -577.957 700.588 -570.956 692.272 -568.835C682.741 -566.428 674.66 -570.625 666.652 -574.893Z" stroke="#5BE7C3" stroke-width="5"/>
<path fill-rule="evenodd" clip-rule="evenodd" d="M680.943 -573.067C623.248 -605.534 573.824 -647.338 519.106 -683.16C494.572 -699.222 468.935 -715.327 440.171 -726.218C424.702 -732.076 405.437 -737.917 387.794 -733.368C337.158 -720.316 351.563 -648.054 352.491 -618.205C353.921 -573.859 356.189 -522.998 333.62 -480.596C318.838 -452.82 293.268 -439.723 258.017 -439.82C220.203 -439.929 194.768 -424.964 177.512 -396.345C155.899 -360.468 150.796 -318.15 148.318 -279.52C145.375 -232.986 147.526 -186.548 154.744 -140.774C161.767 -96.2577 158.427 -51.7705 158.427 -6.61341C158.435 53.2568 162.681 114.48 186.591 170.476C207.411 219.229 244.476 260.821 296.916 288.699C351.652 317.823 416.947 327.127 476.091 348.808C512.982 362.33 561.956 381.516 579.889 413.612C585.87 424.317 582.599 445.722 603.372 433.752C615.253 426.909 624.987 415.776 634.242 406.772C649.198 392.222 663.643 377.325 678.343 362.598C709.678 331.209 741.504 297.827 780.164 272.27C828.836 240.073 873.915 272.213 926.08 260.577C954.153 254.319 974.654 235.103 990.17 215.6C1000.22 202.981 1008.59 189.524 1016.25 175.902C1024.26 161.676 1029.63 145.392 1040.71 132.437C1056.47 113.978 1078.61 118.113 1102.17 118.024C1143.58 117.876 1185.07 113.506 1225.72 105.013C1275.54 94.611 1326.13 79.0842 1369.43 54.8482C1386.28 45.4186 1403.96 33.9653 1414.12 19.1105C1424.28 4.2558 1421.62 -9.347 1415.99 -24.057C1399.34 -67.6935 1368.61 -109.35 1339.47 -148.958C1303 -198.53 1263.21 -246.59 1219.23 -291.684C1188.87 -322.811 1156.43 -353.775 1117.67 -378.028C1106.39 -385.081 1094.45 -391.629 1081.45 -396.475C1072.53 -399.805 1061.47 -400.749 1054.35 -406.349C1032.12 -423.878 1032.54 -465.099 1030.51 -488.875C1026.46 -536.323 1031.01 -584.167 1027.32 -631.603C1025.31 -657.492 1023.52 -698.219 994.286 -713.516C966.809 -727.904 929.425 -706.536 906.658 -692.691C861.892 -665.479 823.271 -631.8 782.424 -600.78C765.614 -588.026 748.096 -574.168 728.218 -564.702C710.504 -556.281 695.734 -564.747 680.943 -573.067Z" stroke="#5ACEF2" stroke-width="5"/>
<path fill-rule="evenodd" clip-rule="evenodd" d="M683.1 -563.47C632.774 -588.724 586.763 -621.13 535.657 -646.511C505.729 -661.366 455.314 -687.098 418.537 -667.588C378.12 -646.175 384.298 -591.222 385.112 -559.088C386.081 -520.842 386.436 -475.824 364.205 -440.006C357.178 -428.678 347.232 -418.498 333.092 -412.855C317.959 -406.813 303.678 -409.292 287.926 -407.755C254.88 -404.529 230.631 -384.906 215.348 -361.188C193.74 -327.666 186.656 -288.417 182.963 -251.745C178.822 -210.205 179.603 -168.642 185.294 -127.654C190.705 -88.4779 194.836 -49.5529 198.866 -10.1514C204.104 41.3811 213.704 93.0645 237 140.614C259.959 187.453 296.653 227.92 346.538 256.888C395.215 285.147 452.209 300.979 509.823 313.815C542.523 321.097 591.689 334.214 611.089 359.428C619.722 370.64 620.837 382.627 637.33 367.269C658.097 347.928 673.572 323.538 690.674 302.067C715.356 271.095 740.501 239.365 771.117 212.043C790.668 194.594 810.664 185.308 838.637 182.584C859.949 180.521 881.407 181.228 902.458 176.6C951.869 165.745 981.818 128.907 1009.91 96.1231C1027.98 75.0341 1041.39 56.1883 1069.32 42.8386C1102.33 27.0528 1139.24 17.3402 1174.06 5.08196C1212.3 -8.38246 1251.96 -23.3292 1284.21 -45.8615C1312.93 -65.9191 1324.17 -87.1425 1311.98 -115.023C1292.97 -158.512 1255.09 -198.814 1220.2 -235.009C1184.7 -271.851 1145.55 -307.491 1099.74 -335.827C1075 -351.124 1047.15 -360.097 1021.03 -373.127C988.23 -389.523 993.432 -437.246 992.302 -465.042C990.425 -511.185 1002.84 -658.828 902.214 -631.886C860.212 -620.641 823.678 -593.609 788.09 -572.652C773.32 -563.963 755.812 -551.906 738.075 -548.014C718.757 -543.774 698.247 -555.88 683.1 -563.47Z" stroke="#FF8062" stroke-width="5"/>
<path fill-rule="evenodd" clip-rule="evenodd" d="M689.237 -547.401C644.23 -565.823 600.899 -589.279 553.001 -603.844C521.979 -613.299 481.163 -621.198 452.541 -599.812C420.242 -575.675 417.851 -531.666 417.625 -499.535C417.397 -466.43 418.737 -427.126 395.826 -397.026C388.527 -387.449 378.091 -378.962 364.652 -375.843C351.762 -372.845 338.232 -374.626 325.094 -371.677C295.592 -365.06 272.98 -346.935 257.7 -325.423C212.495 -261.79 212.031 -176.024 219.789 -107.587C223.677 -73.3323 231.982 -38.6552 239.164 -4.61685C248.483 39.5523 261.647 83.2748 284.653 123.509C333.554 209.055 423.266 258.771 530.467 287.53C564.209 296.58 600.153 302.151 628.632 319.601C643.335 328.594 652.544 324.966 663.165 312.338C679.762 292.596 691.396 269.667 704.614 248.452C723.412 218.277 742.466 187.476 766.123 159.849C782.431 140.806 798.705 126.659 826.008 119.37C845.473 114.172 865.735 112.065 885.46 107.867C922.928 99.8841 959.166 84.8746 988.205 63.0043C1011.22 45.6352 1031.6 25.8963 1050.86 5.73673C1075.94 -20.4749 1101.92 -43.2842 1132.97 -64.7974C1174.06 -93.3096 1251.19 -135.968 1222.53 -186.331C1190.9 -241.877 1123.15 -288.838 1059.6 -318.684C1038.26 -328.708 1012.78 -335.87 996.009 -350.996C970.938 -373.644 968.227 -399.667 964.249 -430.066C958.281 -475.575 957.082 -576.181 873.762 -566.116C840.751 -562.125 811.157 -546.27 780.208 -536.432C745.553 -525.37 719.915 -534.811 689.237 -547.401Z" stroke="#F1B170" stroke-width="5"/>
<path fill-rule="evenodd" clip-rule="evenodd" d="M695.358 -530.012C637.709 -546.476 541.073 -587.763 485.927 -539.139C456.782 -513.452 449.821 -473.989 446.903 -441.275C444.526 -414.944 446.474 -383.835 424.479 -361.236C408.306 -344.625 381.162 -347.404 359.267 -338.938C332.124 -328.436 311.249 -309.874 296.548 -288.532C255.463 -228.889 250.569 -152.954 255.987 -88.5494C261.62 -21.6617 286.681 49.5148 324.403 108.117C371.45 181.184 448.59 230.316 541.842 259.414C559.056 264.782 576.601 269.405 593.97 274.445C605.623 277.835 617.231 283.62 629.316 285.903C649.466 289.7 664.232 280.071 675.194 266.336C690.978 246.577 701.013 223.558 711.954 201.976C726.93 172.461 741.491 142.389 759.941 114.329C772.359 95.4701 785.805 75.6703 810.465 66.2149C827.283 59.763 845.567 56.444 863.577 54.1827C902.195 49.3397 933.167 43.5051 966.521 24.0221C1021.27 -8.01952 1068.43 -52.3332 1106.54 -97.581C1136.46 -133.092 1182.8 -189.149 1154 -231.198C1128.19 -268.93 1076.22 -286.066 1033.2 -307.442C1012.28 -317.835 992.813 -330.05 976.879 -345.331C956.792 -364.597 946.857 -383.935 940.622 -409.113C930.126 -451.488 920.213 -516.176 855.474 -521.043C831.582 -522.842 807.891 -516.818 784.01 -516.242C752.439 -515.44 724.438 -521.705 695.358 -530.012Z" stroke="#5BE7C3" stroke-width="5"/>
<path fill-rule="evenodd" clip-rule="evenodd" d="M700.682 -505.581C638.817 -514.518 560.73 -526.685 513.229 -478.738C490.218 -455.513 479.599 -425.755 472.486 -397.379C467.386 -377.055 469.226 -346.115 447.19 -331.123C430.972 -320.107 407.154 -315.694 389.583 -305.341C365.425 -291.113 346.527 -271.929 332.588 -250.524C296.265 -194.758 288.361 -127.402 291.553 -67.3681C298.502 63.0737 398.338 183.38 542.916 234.324C586.013 249.516 632.508 270.349 669.267 231.554C709.364 189.203 723.101 131.652 749.244 84.0121C759.223 65.8107 771.06 42.7344 791.907 30.5345C804.438 23.1967 821.043 20.586 835.623 18.3756C872.755 12.7244 905.89 5.71021 938.979 -11.2036C990.116 -37.3299 1035.59 -74.1618 1071.57 -113.818C1102.94 -148.402 1138.81 -196.533 1107.51 -236.47C1083.46 -267.084 1039.05 -282.596 1004.94 -304.317C966.946 -328.486 939.181 -360.949 922.713 -398.476C906.722 -434.985 893.791 -475.645 844.771 -489.452C827.956 -494.188 806.414 -498.604 788.475 -498.822C758.91 -499.092 729.548 -501.353 700.682 -505.581V-505.581Z" stroke="#FF8062" stroke-width="5"/>
<path fill-rule="evenodd" clip-rule="evenodd" d="M704.789 -478.094C643.558 -477.863 580.687 -470.332 538.121 -427.622C518.264 -407.69 505.414 -384.135 494.074 -360.536C485.73 -343.174 479.096 -325.509 463.509 -311.29C449.079 -298.117 431.73 -287.249 416.832 -274.402C397.081 -257.442 380.605 -238.106 368.039 -217.139C336.611 -164.591 326.673 -104.454 327.942 -48.3642C328.544 -21.2104 330.878 8.01977 342.558 33.5069C353.83 58.1226 369.618 81.841 387.225 103.505C424.624 149.563 475.38 187.024 536.411 210.936C578.273 227.331 617.728 233.943 653.514 200.666C693.85 163.149 711.813 110.388 735.275 65.7419C751.367 35.1209 766.614 1.17445 808.067 -9.69237C841.05 -18.3428 872.432 -25.9824 902.696 -40.9888C947.315 -63.2664 986.523 -92.4881 1017.99 -126.92C1046.65 -158.393 1069.46 -196.408 1047.01 -232.934C1029.2 -261.87 995.339 -281.636 969.815 -305.583C941.316 -332.264 923.409 -363.372 907.912 -396.58C893.947 -426.418 874.969 -453.733 840.317 -469.588C833.235 -472.834 825.546 -476.21 817.815 -478.409C807.951 -481.215 798.753 -479.664 788.198 -479.061C760.347 -477.443 732.502 -478.202 704.789 -478.094Z" stroke="#F1B170" stroke-width="5"/>
<path fill-rule="evenodd" clip-rule="evenodd" d="M703.935 -447.067C646.86 -438.746 594.342 -420.248 553.922 -383.43C536.631 -367.688 523.042 -349.835 507.521 -332.983C495.007 -319.411 483.404 -306.616 473.602 -291.624C450.398 -256.07 418.318 -225.404 398.391 -188.253C371.742 -138.653 360.6 -84.4332 360.253 -32.0665C360.081 -6.49576 362.317 19.5964 369.706 44.4544C376.051 65.8043 390.874 85.0802 405.772 102.808C434.958 137.556 474.151 169.841 520.792 188.696C623.62 230.265 678.742 113.788 712.06 53.3323C727.388 25.5286 743.887 -16.0293 779.569 -31.3545C805.059 -42.3073 831.386 -50.4254 855.772 -63.4014C921.264 -98.2541 995.363 -161.127 975.29 -229.006C966.708 -258.053 944.358 -282.582 928.076 -308.59C911.309 -335.371 900.15 -363.835 888.26 -392.411C877.153 -419.12 863.667 -439.786 833.041 -453.897C818.414 -460.643 802.376 -457.727 785.734 -456.275C758.4 -453.882 730.973 -450.993 703.935 -447.067Z" stroke="#5BE7C3" stroke-width="5"/>
<path fill-rule="evenodd" clip-rule="evenodd" d="M700.315 -418.434C615.52 -395.745 526.858 -341.772 484.89 -274.244C435.521 -194.81 396.259 -110.66 393.433 -23.2722C392.121 17.2432 394.678 61.0902 421.32 95.5879C441.586 121.844 470.61 151.608 507.299 162.639C597.042 189.629 652.99 95.3826 685.635 41.584C703.208 12.6198 719.289 -23.4072 747.425 -47.2314C763.738 -61.0518 786.56 -70.0479 804.921 -81.9011C860.563 -117.822 902.299 -170.275 903.188 -228.775C903.595 -255.823 895.124 -281.879 887.709 -307.676C880.121 -334.082 874.308 -361.067 865.168 -387.095C857.869 -407.872 846.983 -432.052 818.018 -436.187C781.518 -441.404 734.944 -427.696 700.315 -418.434Z" stroke="#5ACEF2" stroke-width="5"/>
<path fill-rule="evenodd" clip-rule="evenodd" d="M690.084 -389.461C611.135 -362.358 536.609 -317.37 495.921 -253.065C474.345 -218.964 461.384 -180.996 448.444 -144.477C433.779 -103.082 423.789 -60.5461 421.681 -18.1854C419.05 34.5583 421.627 119.066 496.797 136.375C571.409 153.555 625.254 77.6937 655.744 33.0137C675.274 4.37056 692.677 -25.8159 714.499 -53.6063C726.329 -68.675 740.681 -80.9847 755.135 -94.3311C795.195 -131.234 824.278 -180.091 836.934 -227.615C849.203 -273.675 849.995 -328.731 837.843 -373.991C832.61 -393.522 822.029 -406.566 796.548 -409.273C761.131 -413.01 722.696 -400.662 690.084 -389.461Z" stroke="#F1B170" stroke-width="5"/>
<path fill-rule="evenodd" clip-rule="evenodd" d="M671.842 -359.591C602.576 -333.894 541.998 -290.356 505.925 -233.851C465.487 -170.51 448.593 -93.6589 444.03 -24.4908C441.61 12.2745 432.44 92.4721 490.851 103.227C549.262 113.982 597.355 53.8473 623.653 19.4216C655.514 -22.3529 685.722 -66.8374 713.423 -110.939C737.511 -149.258 761.933 -189.975 779.099 -230.286C788.855 -253.031 796.185 -276.345 801.003 -299.953C804.524 -317.427 810.267 -339.817 803.637 -356.756C786.901 -399.479 704.961 -371.881 671.842 -359.591Z" stroke="#FF8062" stroke-width="5"/>
<path fill-rule="evenodd" clip-rule="evenodd" d="M654.906 -323.468C524.571 -269.981 473.155 -148.917 464.458 -37.814C462.443 -11.9975 452.482 60.9509 495.622 69.4552C537.448 77.6934 579.105 28.1088 598.874 4.85907C660.132 -67.1844 701.403 -151.587 742.737 -231.863C755.639 -256.92 784.761 -302.895 764.969 -329.185C743.448 -357.726 681.933 -334.552 654.906 -323.468Z" stroke="#5ACEF2" stroke-width="5"/>
<path fill-rule="evenodd" clip-rule="evenodd" d="M633.763 -283.722C538.412 -239.617 493.349 -142.426 485.563 -57.5731C483.661 -36.7905 476.19 16.3448 505.993 27.9028C533.563 38.6 566.255 -0.112556 579.351 -14.7118C608.513 -47.2144 631.178 -84.1412 652.844 -120.525C672.892 -154.168 693.5 -188.22 709.614 -222.953C718.096 -241.246 736.776 -275.927 717.631 -292.862C697.034 -311.097 654.935 -293.515 633.763 -283.722Z" stroke="#5ACEF2" stroke-width="5"/>
</g>
</svg>
