<svg width="32" height="32" viewBox="0 0 32 32" fill="none" xmlns="http://www.w3.org/2000/svg">
<path d="M16.2441 22.4365C16.168 22.4788 16.084 22.5 16 22.5C15.916 22.5 15.832 22.4788 15.7559 22.4365L0.5 13.9112V31C0.5 31.2761 0.723633 31.5 1 31.5H31C31.0003 31.5 31.0006 31.4998 31.0009 31.4998C31.0599 31.4997 31.1171 31.4856 31.1721 31.4653C31.1859 31.4602 31.199 31.4552 31.2122 31.4489C31.2634 31.4248 31.3121 31.3949 31.3532 31.3538C31.354 31.3531 31.3543 31.3521 31.3551 31.3514C31.3852 31.321 31.4123 31.2866 31.4346 31.2476C31.4396 31.2388 31.4392 31.2289 31.4437 31.2199C31.4583 31.1905 31.4658 31.1589 31.4745 31.1266C31.4833 31.0934 31.4926 31.0616 31.4944 31.0279C31.495 31.0182 31.5 31.0099 31.5 31V13.9112L16.2441 22.4365Z" fill="white"/>
<path d="M27.5 15.0006L30.7567 13.1806L27.5 11.2918V15.0006Z" fill="white"/>
<path d="M4.50003 11.2918L1.24329 13.1806L4.50003 15.0006V11.2918Z" fill="white"/>
<path d="M26.5 1C26.5 0.723877 26.2764 0.5 26 0.5H6C5.72363 0.5 5.5 0.723877 5.5 1V15.5594L16 21.4272L26.5 15.5594V1ZM16 14.6923C16 14.6923 12 11.3846 12 9.23077C12 8 12.9231 7 14.1538 7C14.9231 7 15.6154 7.38461 16 8C16.3846 7.38461 17.0769 7 17.8462 7C19.0769 7 20 8 20 9.23077C20 11.3846 16 14.6923 16 14.6923Z" fill="white"/>
</svg>
